<svg width="24" height="24" viewBox="0 0 24 24" fill="none" xmlns="http://www.w3.org/2000/svg">
<circle cx="12" cy="12" r="12" fill="#202125"/>
<path d="M15.2308 5H8.76923C7.7699 5.00107 6.8118 5.39853 6.10516 6.10516C5.39853 6.8118 5.00107 7.7699 5 8.76923V15.2308C5.00107 16.2301 5.39853 17.1882 6.10516 17.8948C6.8118 18.6015 7.7699 18.9989 8.76923 19H15.2308C16.2301 18.9989 17.1882 18.6015 17.8948 17.8948C18.6015 17.1882 18.9989 16.2301 19 15.2308V8.76923C18.9989 7.7699 18.6015 6.8118 17.8948 6.10516C17.1882 5.39853 16.2301 5.00107 15.2308 5ZM12 15.2308C11.361 15.2308 10.7364 15.0413 10.2051 14.6863C9.67378 14.3313 9.25969 13.8267 9.01516 13.2364C8.77063 12.646 8.70665 11.9964 8.83131 11.3697C8.95597 10.743 9.26367 10.1673 9.7155 9.7155C10.1673 9.26367 10.743 8.95597 11.3697 8.83131C11.9964 8.70665 12.646 8.77063 13.2364 9.01516C13.8267 9.25969 14.3313 9.67378 14.6863 10.2051C15.0413 10.7364 15.2308 11.361 15.2308 12C15.2299 12.8566 14.8892 13.6778 14.2835 14.2835C13.6778 14.8892 12.8566 15.2299 12 15.2308ZM16.0385 8.76923C15.8787 8.76923 15.7226 8.72186 15.5897 8.63311C15.4569 8.54436 15.3534 8.41822 15.2923 8.27063C15.2311 8.12304 15.2151 7.96064 15.2463 7.80397C15.2775 7.64729 15.3544 7.50337 15.4673 7.39041C15.5803 7.27746 15.7242 7.20053 15.8809 7.16937C16.0376 7.1382 16.2 7.1542 16.3476 7.21533C16.4951 7.27646 16.6213 7.37998 16.71 7.51281C16.7988 7.64563 16.8462 7.80179 16.8462 7.96154C16.8462 8.17575 16.7611 8.38119 16.6096 8.53266C16.4581 8.68414 16.2527 8.76923 16.0385 8.76923ZM14.1538 12C14.1538 12.426 14.0275 12.8424 13.7909 13.1966C13.5542 13.5508 13.2178 13.8269 12.8242 13.9899C12.4307 14.1529 11.9976 14.1956 11.5798 14.1125C11.162 14.0294 10.7782 13.8242 10.477 13.523C10.1758 13.2218 9.97065 12.838 9.88754 12.4202C9.80443 12.0024 9.84709 11.5693 10.0101 11.1758C10.1731 10.7822 10.4492 10.4458 10.8034 10.2091C11.1576 9.97247 11.574 9.84615 12 9.84615C12.5712 9.84615 13.1191 10.0731 13.523 10.477C13.9269 10.8809 14.1538 11.4288 14.1538 12Z" fill="#FBB034"/>
</svg>
