<svg width="24" height="24" viewBox="0 0 24 24" fill="none" xmlns="http://www.w3.org/2000/svg">
<circle cx="12" cy="12" r="12" fill="#202125"/>
<path d="M19 7.41176C18.4847 7.65882 17.9293 7.82118 17.3537 7.89882C17.9426 7.52471 18.3977 6.93176 18.6119 6.21882C18.0564 6.57176 17.4407 6.81882 16.7916 6.96C16.2629 6.35294 15.5201 6 14.6769 6C13.1042 6 11.8193 7.35529 11.8193 9.02824C11.8193 9.26824 11.8461 9.50118 11.8929 9.72C9.51052 9.59294 7.3891 8.38588 5.97706 6.55765C5.72945 7.00235 5.58891 7.52471 5.58891 8.07529C5.58891 9.12706 6.09082 10.0588 6.86711 10.5882C6.39197 10.5882 5.95029 10.4471 5.56214 10.2353V10.2565C5.56214 11.7247 6.55258 12.9529 7.86425 13.2282C7.44313 13.3498 7.00102 13.3667 6.57266 13.2776C6.75442 13.8794 7.1104 14.4059 7.59055 14.7832C8.0707 15.1606 8.65087 15.3697 9.24952 15.3812C8.23474 16.2285 6.97686 16.6866 5.6826 16.68C5.45507 16.68 5.22753 16.6659 5 16.6376C6.27151 17.4988 7.78394 18 9.40344 18C14.6769 18 17.5746 13.3835 17.5746 9.38118C17.5746 9.24706 17.5746 9.12 17.5679 8.98588C18.13 8.56235 18.6119 8.02588 19 7.41176Z" fill="#FBB034"/>
</svg>
