<svg width="60" height="60" viewBox="0 0 60 60" fill="none" xmlns="http://www.w3.org/2000/svg">
<path d="M21.9462 29.1783C21.8013 29.2673 21.6876 29.376 21.7123 29.591C21.812 29.4403 22.0846 29.6116 22.1118 29.3398C22.5525 29.1289 22.994 28.9197 23.4322 28.7055C23.4865 28.6792 23.5326 28.6273 23.5738 28.5803C24.5408 27.4585 25.5861 26.4116 26.605 25.3392C26.8883 25.041 26.9888 25.3416 27.156 25.4644C27.3479 25.6052 27.3364 25.7065 27.1667 25.8853C26.6569 26.4223 26.1725 26.9832 25.6124 27.4708C25.5309 27.5087 25.432 27.5557 25.479 27.6578C25.5152 27.7377 25.5803 27.6924 25.6116 27.6249C25.8513 27.6216 26.0374 27.4618 26.2327 27.3662C26.7796 27.1002 27.408 26.9363 27.7326 26.3342C27.8421 26.1307 27.955 26.2345 28.0415 26.3754C28.0382 26.4371 28.0744 26.4602 28.1271 26.4478C28.2054 26.4281 28.1716 26.3515 28.1922 26.3021C28.3989 26.3004 28.52 26.1258 28.693 26.0517C29.3569 25.7683 29.8124 25.256 30.1797 24.6539C30.2588 24.5254 30.1855 24.4389 30.0974 24.3524C29.2078 23.4735 28.3833 22.5321 27.5176 21.6318C26.5704 20.6459 25.6363 19.6476 24.6932 18.6583C23.7139 17.6312 22.7534 16.5851 21.756 15.577C20.84 14.652 20.0328 13.6191 19.0107 12.7979C18.6837 12.5351 18.2908 12.4915 17.9687 12.7641C17.3897 13.2534 16.8831 13.8118 16.3699 14.3694C15.2423 15.5942 14.0735 16.782 12.922 17.9854C12.3866 18.5447 11.8496 19.1031 11.3225 19.6698C11.2129 19.7876 11.1001 19.9317 11.0655 20.0816C10.9032 20.7719 11.0185 21.1491 11.6849 21.0733C11.9287 21.0453 12.1478 20.8971 12.287 20.7118C12.8265 19.9943 13.5036 19.3996 14.132 18.7778C15.0339 17.8849 15.8444 16.9039 16.79 16.0563C17.3139 15.586 17.5264 15.5868 18.0988 16.0464C17.1747 17.034 16.2563 18.0282 15.3231 19.0084C14.4837 19.8897 13.6296 20.7554 12.7828 21.6269C12.7285 21.6829 12.6543 21.7273 12.6214 21.7932C12.5201 22.0008 12.4023 22.2265 12.6478 22.4118C12.8685 22.579 13.0629 22.4835 13.2111 22.2916C13.8124 21.5157 14.5521 20.8683 15.2176 20.1533C16.2546 19.0389 17.3262 17.9557 18.3492 16.8281C18.6071 16.5448 18.7463 16.5571 18.9999 16.8298C19.2882 17.1403 18.9843 17.282 18.8566 17.4113C17.7677 18.5134 16.7184 19.6517 15.6558 20.7793C15.0002 21.4753 14.3322 22.159 13.6699 22.8484C13.6428 22.8764 13.6049 22.8986 13.59 22.9324C13.4986 23.1416 13.45 23.3615 13.6699 23.5139C13.8717 23.6531 14.0735 23.5897 14.1996 23.3928C14.2622 23.2956 14.3248 23.2042 14.4047 23.1227C15.2514 22.2504 16.0981 21.3781 16.9449 20.5058C16.9902 20.4597 17.0388 20.4161 17.0816 20.3675C17.8715 19.4655 18.7067 18.6056 19.5428 17.7473C19.7388 17.5455 19.8261 17.7342 19.8978 17.8379C19.9785 17.9549 20.3112 18.0084 20.0617 18.2448C19.4316 18.842 18.9843 19.6105 18.2792 20.1368C18.1746 20.1821 18.117 20.2587 18.1186 20.3749C17.6565 20.7925 17.2159 21.2323 16.7983 21.6944C16.6937 21.7397 16.636 21.8163 16.6376 21.9333C16.2011 22.3245 15.7868 22.7388 15.3955 23.1754C15.2909 23.2207 15.2333 23.2973 15.2349 23.4142C15.076 23.5641 14.9178 23.7157 14.758 23.8648C14.5356 24.0724 14.4195 24.3442 14.6608 24.5592C14.8692 24.7445 15.0867 24.5534 15.2605 24.3763C16.1278 23.4933 16.9671 22.5856 17.8089 21.6788C18.654 20.7694 19.5617 19.9169 20.3846 18.9894C20.6893 18.646 20.7882 18.6657 21.0262 19.0109C21.1662 19.2135 21.1885 19.3008 21.0105 19.4853C20.2042 20.318 19.4003 21.1532 18.6235 22.0148C17.9053 22.8113 17.136 23.56 16.393 24.3351C16.136 24.6036 15.8963 24.8886 15.641 25.1588C15.5356 25.27 15.5339 25.382 15.5833 25.5105C15.711 25.8424 16.0199 25.8614 16.2892 25.5023C16.9243 24.6547 17.7167 23.9537 18.4283 23.1787C19.378 22.1433 20.378 21.1532 21.3227 20.1121C21.7008 19.6953 21.6991 19.7151 22.097 20.0924C22.2765 20.262 22.2601 20.346 22.0937 20.5141C21.6036 21.0083 21.1053 21.4934 20.6415 22.0165C19.9043 22.8476 19.0914 23.6103 18.3361 24.4257C17.8443 24.9553 17.3493 25.4808 16.8419 25.9948C16.7307 26.1068 16.6516 26.2625 16.5923 26.4116C16.5322 26.5632 16.5545 26.6859 16.7455 26.7806C17.0964 26.9528 17.2554 26.6925 17.4086 26.5022C17.9234 25.8639 18.5008 25.2807 19.0453 24.6712C20.0674 23.5263 21.1506 22.4349 22.2156 21.3295C22.7213 20.8048 22.7296 20.8122 23.2353 21.3205C23.2477 21.3328 23.2485 21.3559 23.2567 21.3781C23.0277 21.57 22.8679 21.8237 22.6628 22.0321C21.7041 23.0065 20.7684 24.0032 19.8426 25.0089C19.1606 25.7502 18.4506 26.4668 17.7455 27.1859C17.5816 27.3531 17.4811 27.54 17.6516 27.7171C17.8402 27.9132 18.0552 27.9181 18.2743 27.6834C18.9522 26.9561 19.6482 26.246 20.3401 25.5311C20.5295 25.3351 20.7371 25.1571 20.9183 24.9545C21.8375 23.9257 22.7699 22.911 23.7847 21.9464C23.9486 22.1211 24.1059 22.2899 24.255 22.4489C23.4577 23.3063 22.667 24.1901 21.8392 25.0385C20.812 26.092 19.7997 27.1579 18.8006 28.2377C18.6219 28.4313 18.4917 28.6462 18.724 28.8579C18.9398 29.0548 19.1424 28.9139 19.3154 28.7385C19.668 28.381 20.0057 28.0104 20.3467 27.6422C21.172 26.7501 22.0327 25.891 22.8795 25.0179C22.933 24.9628 22.9882 24.9076 23.0343 24.8458C23.5063 24.2157 24.1586 23.7519 24.6298 23.1202C24.7888 22.9069 24.951 23.0601 25.0268 23.2026C25.1001 23.3418 25.3991 23.4307 25.1619 23.677C24.0244 24.8581 22.8943 26.0451 21.7601 27.2295C21.1168 27.9008 20.4719 28.5713 19.8277 29.2418C19.7915 29.2788 19.7273 29.3101 19.7215 29.3513C19.6927 29.5572 19.4629 29.7714 19.7355 29.9707C19.9875 30.1544 20.1712 30.0259 20.3244 29.8299C20.9208 29.0671 21.6472 28.4255 22.3054 27.7204C23.3523 26.5978 24.4296 25.5023 25.4675 24.3705C25.717 24.0987 25.8694 24.0897 26.1404 24.359C26.4468 24.6629 26.1758 24.8211 26.0342 24.9718C24.8843 26.1941 23.718 27.4008 22.5582 28.6141C22.3663 28.8118 22.0871 28.9205 21.9462 29.1783ZM27.5613 30.6733C27.016 30.9163 26.4559 30.9188 26.0539 31.3454C25.3447 32.0974 24.6207 32.8346 23.9033 33.5784C23.8679 33.6155 23.8176 33.6476 23.8003 33.6929C23.7188 33.9005 23.6595 34.1278 23.844 34.2967C24.0285 34.4663 24.2163 34.3626 24.3621 34.2061C24.5359 34.0191 24.6891 33.8132 24.8654 33.6295C25.6899 32.7729 26.5193 31.9195 27.3504 31.0687C27.4336 30.983 27.4888 30.8899 27.5613 30.6733ZM27.1626 32.9565C27.1362 32.9359 27.1107 32.9154 27.0843 32.8939C26.4188 33.5595 25.7047 34.1863 25.222 35.01C25.0655 35.2768 25.0194 35.6409 25.2854 35.8946C25.6668 36.2578 26.4089 36.0519 26.5399 35.5478C26.7639 34.6887 26.9567 33.8206 27.1626 32.9565ZM24.8736 31.5357C23.9914 31.4962 23.0384 32.0464 22.7485 32.7284C22.6908 32.8643 22.6752 33.0562 22.7979 33.1674C22.9108 33.2695 23.0615 33.2654 23.2196 33.1814C23.3259 33.1246 23.4074 33.0537 23.489 32.9747C23.9478 32.5282 24.3168 31.9986 24.8736 31.5357Z" fill="#FEFEFE"/>
<path d="M29.5842 26.2922C30.3824 25.8144 30.7629 24.9784 31.309 24.2849C31.4968 24.046 31.6846 23.8079 31.8724 23.5699C31.8897 23.551 31.907 23.532 31.9243 23.5122C32.1887 22.9752 32.617 22.5518 32.9572 22.0683C33.8056 20.8625 34.7025 19.6912 35.5872 18.5117C36.2041 17.6897 36.8655 16.8989 37.4454 16.0522C37.9758 15.2771 38.5705 14.5531 39.1142 13.7896C39.7105 12.9527 40.3414 12.1397 40.9526 11.3136C41.4798 10.6011 42.0119 9.8911 42.5151 9.16132C42.6453 8.97187 42.7828 8.98752 42.941 9.01965C43.0719 9.046 43.1395 9.13249 43.0555 9.27828C42.4814 10.2659 41.9073 11.2543 41.3364 12.2443C40.6141 13.4972 39.8975 14.7524 39.1751 16.0053C38.6834 16.8578 38.1595 17.6921 37.6974 18.5595C37.0138 19.8444 36.1753 21.0404 35.5443 22.3542C35.5139 22.3888 35.4826 22.4233 35.4521 22.4588C35.5196 22.4991 35.5691 22.4876 35.5929 22.4077C35.9438 22.2578 36.2552 22.0593 36.5566 21.8163C36.9512 21.4992 37.4149 21.2694 37.8506 21.0041C38.9437 20.3394 40.026 19.6533 41.0869 18.9425C41.9509 18.3634 42.88 17.8906 43.7103 17.263C43.8141 17.3198 43.8602 17.2894 43.8478 17.1716C44.4788 16.7688 45.1221 16.3833 45.7382 15.9583C46.4334 15.4789 47.1648 15.0564 47.8781 14.6066C47.9736 14.5465 48.0741 14.3571 48.2109 14.5408C48.3295 14.6989 48.3517 14.8686 48.168 15.0127C47.8979 15.2261 47.6285 15.4402 47.3616 15.6585C46.22 16.5917 45.0661 17.5109 43.9442 18.4672C43.2589 19.052 42.5085 19.5668 41.8644 20.1854C41.1116 20.9078 40.1899 21.4185 39.4947 22.2166C39.2443 22.5041 38.816 22.691 38.5046 22.9661C38.0178 23.3961 37.5385 23.85 37.0212 24.2255C36.4067 24.6712 35.8664 25.1967 35.2659 25.6538C34.4744 26.2559 33.7232 26.9107 32.9399 27.5236C31.8707 28.3604 31.2826 29.5341 30.7571 30.7235C30.2679 31.8306 29.7827 32.9425 29.3066 34.0561C28.9286 34.9408 28.5192 35.8172 28.1197 36.6952C27.7845 37.4324 27.4459 38.1712 27.1313 38.9191C27.0498 39.1127 27.2046 39.1539 27.282 39.2198C28.0925 39.9108 28.5299 40.8358 28.7597 41.8284C28.9747 42.7591 28.9434 43.7236 28.6386 44.6552C28.2202 45.9336 27.4682 46.9236 26.2615 47.5768C25.8044 47.8239 25.3802 48.0315 24.8431 48.0759C24.6051 48.0957 24.3407 48.1838 24.0788 48.1978C23.9527 48.2053 23.9074 48.2843 23.8967 48.4046C23.8481 48.9507 23.7921 49.496 23.7427 50.0412C23.6834 50.6903 23.671 50.7858 22.98 50.8534C22.7938 50.8715 22.583 50.8707 22.4166 51C22.3128 51 22.209 51 22.1044 51C22.3474 50.1211 22.452 49.211 22.7172 48.3362C22.7699 48.1624 22.7543 47.9878 22.4808 47.9507C22.2963 47.926 22.1242 47.8091 21.9463 47.7333C21.9479 47.6312 21.901 47.5743 21.7963 47.5694C21.0682 47.2465 20.5221 46.7309 20.0674 46.0769C19.6309 45.4492 19.341 44.7755 19.2141 44.0317C19.1268 43.5202 19.126 43.0161 19.1729 42.4807C19.2355 41.7715 19.4159 41.1348 19.7116 40.5228C19.8772 40.1794 20.0189 39.798 20.3368 39.5426C20.3615 39.5328 20.3788 39.5146 20.3879 39.4899C20.7223 39.0229 21.2486 38.7816 21.6679 38.4126C21.9874 38.1309 22.4586 38.1267 22.8605 37.9958C23.8473 37.6754 24.8118 37.8623 25.7599 38.1819C25.9666 38.2519 26.0894 38.2297 26.1907 38.0221C26.8381 36.6903 27.3784 35.3262 27.6461 33.8585C27.7985 33.0216 28.0283 32.1996 28.2186 31.3693C28.3248 30.9056 28.3973 30.432 28.534 29.9773C28.604 29.7442 28.4887 29.7911 28.3784 29.8183C27.1881 30.114 26.0029 30.4344 24.8077 30.7104C23.3844 31.0398 22.0418 31.5711 20.7387 32.2218C20.4875 32.347 20.4678 32.487 20.546 32.7193C21.0303 34.1476 21.0196 35.5379 20.3409 36.9275C19.6902 38.2594 18.7026 39.1703 17.2851 39.5616C15.5834 40.0311 14.0398 39.6761 12.7408 38.462C11.834 37.6144 11.2698 36.5362 11.1338 35.3172C10.9708 33.8543 11.2302 32.4524 12.2475 31.291C12.3389 31.1864 12.3554 31.0225 12.5077 30.9706C12.6758 30.9682 12.6725 30.8504 12.6684 30.7318C13.3042 30.1708 14.053 29.829 14.861 29.5992C15.0422 29.5473 15.2448 29.6231 15.4096 29.4963C15.7687 29.4954 16.127 29.4946 16.4861 29.4946C17.1953 29.6042 17.8649 29.8216 18.4885 30.1865C18.8443 30.3941 19.1952 30.5736 19.4192 30.9599C19.5477 31.1815 19.7577 31.4879 20.1128 31.1535C20.2511 31.0234 20.4991 31.0645 20.635 30.8982C20.7355 30.9533 20.7849 30.9286 20.7742 30.81C21.6382 30.3175 22.5904 30.0028 23.4486 29.507C24.2097 29.0671 25.0375 28.7731 25.8019 28.3456C26.1223 28.166 26.5078 28.1141 26.7944 27.8596C26.8941 27.9164 26.9419 27.8893 26.932 27.7723C27.7227 27.3992 28.5134 27.0269 29.2465 26.5426C29.3215 26.4931 29.3948 26.4544 29.445 26.3786C29.5463 26.4355 29.5933 26.4091 29.5842 26.2922ZM31.6278 27.8588C31.7282 27.9164 31.776 27.8893 31.7661 27.7715C32.0561 27.3349 32.052 26.8976 31.767 26.4602C31.776 26.3424 31.7266 26.3185 31.6278 26.3753C31.1665 25.9742 30.6921 26.0632 30.314 26.6216C30.0784 26.97 30.2168 27.6372 30.5932 27.9675C30.8346 28.1792 31.3139 28.129 31.6278 27.8588ZM18.439 37.4522C18.5527 37.3467 18.6919 37.2594 18.7751 37.1342C19.3756 36.2273 19.7372 35.2587 19.6251 34.1369C19.5518 33.3972 19.2784 32.7374 18.8657 32.1576C18.3748 31.4673 17.6244 31.0621 16.8312 30.838C16.1706 30.6519 15.4804 30.6329 14.8017 30.9616C14.3322 31.1889 13.8479 31.3907 13.4937 31.7647C12.698 32.6048 12.2705 33.5973 12.3562 34.7892C12.4369 35.916 12.8652 36.8706 13.7276 37.5897C14.9895 38.6424 16.9712 38.747 18.346 37.5205C18.3781 37.4975 18.4086 37.4752 18.439 37.4522ZM26.3908 40.153C26.3933 40.0385 26.3818 39.9347 26.2286 39.9372C25.6149 39.6118 25.0639 39.1901 24.2888 39.2091C23.6809 39.2239 23.0862 39.2321 22.5344 39.4817C21.3334 40.0253 20.7083 41.036 20.4002 42.2657C20.364 42.4115 20.1918 42.4955 20.2388 42.638C20.3697 43.0375 20.3566 43.4584 20.4513 43.8637C20.649 44.7112 21.0839 45.3842 21.709 46.0036C22.3573 46.646 23.8712 47.0183 24.7039 46.8124C25.381 46.6452 25.9699 46.3405 26.4641 45.8561C27.0481 45.2837 27.4048 44.5811 27.6478 43.8035C27.7622 43.4378 27.6362 43.0985 27.6239 42.7517C27.5876 41.7213 27.2096 40.8259 26.3908 40.153Z" fill="#FBB033"/>
<path d="M36.4611 37.2083C36.2132 36.6276 35.817 36.1458 35.4298 35.6582C35.4315 35.5495 35.4488 35.4325 35.2915 35.4152C34.8434 34.9762 34.4793 34.449 33.9069 34.141C33.7948 34.0808 33.7265 33.94 33.6383 33.8362C33.6095 33.8173 33.5807 33.7975 33.5518 33.7785C33.0593 33.4738 32.5708 33.1517 31.949 33.2324C31.4877 33.2926 31.033 33.3906 30.5948 33.5487C30.4721 33.5924 30.3634 33.6624 30.2555 33.6105C30.6632 32.6625 31.0413 31.7004 31.4869 30.7705C31.8551 30.0012 32.2735 29.2508 32.7298 28.5301C32.8649 28.3176 33.1911 28.1948 33.4547 28.1042C33.6919 28.0227 33.7965 28.2953 33.9349 28.4312C35.2025 29.6783 36.3227 31.0637 37.5846 32.319C38.4321 33.1633 39.2196 34.0693 40.0556 34.9292C41.1626 36.0675 42.2812 37.196 43.3363 38.3813C43.8923 39.0056 44.4647 39.6234 45.0603 40.1966C45.8971 41.003 46.645 41.8918 47.4901 42.6874C47.7603 42.9411 47.9909 43.2368 48.2438 43.5095C48.3196 43.591 48.3838 43.7055 48.5279 43.6758C48.5279 43.8315 48.5279 43.9872 48.5279 44.1437C48.2479 44.3859 48.1952 44.7705 47.9234 45.0374C46.8649 46.076 45.627 46.8001 44.1979 47.1518C43.5496 47.3116 42.8701 47.3519 42.1914 47.1427C41.6329 46.9706 41.259 46.59 40.9995 46.1362C40.4567 45.1873 39.9732 44.2038 39.4939 43.2204C39.0795 42.3703 38.732 41.4873 38.3086 40.6422C37.7386 39.5056 37.2329 38.3335 36.522 37.2709C36.5023 37.2487 36.4817 37.2289 36.4611 37.2083Z" fill="#FBB033"/>
<path d="M28.0415 26.3754C27.955 26.2346 27.8421 26.1308 27.7326 26.3342C27.4072 26.9363 26.7788 27.1011 26.2327 27.3663C26.0374 27.461 25.8513 27.6208 25.6116 27.6249C25.6116 27.5739 25.6124 27.522 25.6124 27.4709C26.1725 26.9833 26.6577 26.4232 27.1667 25.8853C27.3364 25.7066 27.3479 25.6053 27.156 25.4644C26.9888 25.3417 26.8883 25.0411 26.605 25.3392C25.5861 26.4117 24.54 27.4594 23.5738 28.5804C23.5326 28.6282 23.4873 28.6793 23.4322 28.7056C22.9931 28.9206 22.5525 29.129 22.1118 29.3398C22.008 29.3357 21.9512 29.2838 21.9462 29.1776C22.0863 28.9189 22.3663 28.811 22.5599 28.6092C23.7196 27.396 24.8859 26.1893 26.0358 24.9669C26.1775 24.8162 26.4485 24.6581 26.1421 24.3541C25.8711 24.0848 25.7187 24.0938 25.4691 24.3657C24.4313 25.4974 23.3539 26.5929 22.307 27.7155C21.6497 28.4206 20.9232 29.0623 20.3261 29.825C20.1729 30.021 19.9892 30.1495 19.7371 29.9658C19.4645 29.7665 19.6943 29.5523 19.7231 29.3464C19.7289 29.3061 19.794 29.2748 19.8294 29.2369C20.4735 28.5664 21.1184 27.8968 21.7617 27.2246C22.8959 26.0402 24.026 24.8533 25.1635 23.6721C25.4007 23.4258 25.1018 23.3369 25.0284 23.1977C24.9535 23.0552 24.7912 22.902 24.6314 23.1153C24.1595 23.7471 23.5079 24.2108 23.036 24.8409C22.9898 24.9027 22.9347 24.9579 22.8811 25.0131C22.0352 25.8862 21.1736 26.7444 20.3483 27.6373C20.0073 28.0055 19.6696 28.3761 19.3171 28.7336C19.1449 28.9082 18.9415 29.0499 18.7257 28.853C18.4934 28.6414 18.6235 28.4264 18.8023 28.2328C19.8014 27.153 20.8137 26.0871 21.8408 25.0337C22.6678 24.1853 23.4585 23.3023 24.2567 22.444C24.1076 22.285 23.9503 22.117 23.7863 21.9416C22.7716 22.9069 21.8392 23.9217 20.9199 24.9496C20.7387 25.1523 20.5312 25.331 20.3417 25.5262C19.6498 26.2412 18.9538 26.9504 18.2759 27.6785C18.0568 27.9141 17.8419 27.9091 17.6532 27.7123C17.4827 27.5352 17.5832 27.3482 17.7471 27.181C18.4522 26.4611 19.1622 25.7445 19.8442 25.004C20.77 23.9983 21.7049 23.0016 22.6645 22.0272C22.8696 21.8188 23.0294 21.5652 23.2584 21.3732C23.2501 21.351 23.2493 21.3279 23.2369 21.3156C22.7312 20.8074 22.723 20.8 22.2172 21.3246C21.1514 22.4308 20.0691 23.5214 19.0469 24.6663C18.5024 25.2766 17.9251 25.859 17.4103 26.4973C17.257 26.6876 17.0981 26.9479 16.7472 26.7757C16.5553 26.6818 16.5339 26.5591 16.594 26.4067C16.6533 26.2576 16.7324 26.1028 16.8436 25.9899C17.3518 25.476 17.8468 24.9505 18.3377 24.4208C19.0938 23.6062 19.906 22.8427 20.6432 22.0116C21.1069 21.4886 21.6052 21.0034 22.0953 20.5092C22.2617 20.3412 22.2782 20.258 22.0986 20.0875C21.7008 19.7102 21.7033 19.6905 21.3244 20.1072C20.3788 21.1484 19.3788 22.1384 18.43 23.1738C17.7191 23.9497 16.9268 24.6498 16.2909 25.4974C16.0215 25.8565 15.7118 25.8376 15.585 25.5056C15.5356 25.3763 15.5372 25.2651 15.6426 25.1539C15.8988 24.8846 16.1377 24.5988 16.3947 24.3302C17.1368 23.556 17.9069 22.8064 18.6252 22.0099C19.4019 21.1484 20.2058 20.314 21.0122 19.4804C21.1901 19.2967 21.1679 19.2094 21.0278 19.006C20.789 18.6609 20.691 18.6411 20.3862 18.9846C19.5633 19.912 18.6557 20.7645 17.8106 21.6739C16.9688 22.5807 16.1286 23.4884 15.2621 24.3714C15.0883 24.5485 14.8709 24.7396 14.6625 24.5543C14.422 24.3393 14.5381 24.0675 14.7597 23.8599C14.9195 23.7108 15.0776 23.5593 15.2366 23.4094C15.4046 23.4069 15.4013 23.2891 15.3972 23.1705C15.7884 22.7339 16.2027 22.3196 16.6393 21.9284C16.8065 21.9259 16.804 21.8081 16.7999 21.6895C17.2175 21.2274 17.6582 20.7876 18.1203 20.37C18.2875 20.3675 18.285 20.2497 18.2809 20.132C18.9859 19.6064 19.434 18.838 20.0633 18.24C20.3129 18.0027 19.9809 17.95 19.8994 17.8331C19.8277 17.7293 19.7404 17.5407 19.5444 17.7425C18.7084 18.6007 17.8732 19.4607 17.0833 20.3626C17.0404 20.4112 16.9918 20.454 16.9465 20.501C16.1006 21.3774 15.2539 22.2496 14.4071 23.1219C14.3272 23.2043 14.2646 23.2949 14.202 23.3921C14.076 23.5889 13.8742 23.6523 13.6724 23.5131C13.4517 23.3608 13.5011 23.1408 13.5925 22.9316C13.6073 22.8987 13.6452 22.8756 13.6724 22.8476C14.3346 22.1582 15.0026 21.4745 15.6583 20.7785C16.72 19.6517 17.7702 18.5134 18.8591 17.4105C18.9868 17.2812 19.2907 17.1404 19.0024 16.829C18.7487 16.5564 18.6087 16.5432 18.3517 16.8274C17.3279 17.955 16.2571 19.0381 15.2201 20.1525C14.5546 20.8683 13.8149 21.5157 13.2136 22.2908C13.0645 22.4827 12.871 22.5783 12.6502 22.4111C12.4048 22.2257 12.5226 22.0001 12.6239 21.7925C12.656 21.7266 12.7309 21.6813 12.7853 21.6261C13.632 20.7538 14.4862 19.8881 15.3239 19.0076C16.2571 18.0275 17.1755 17.0325 18.0997 16.0457C17.5272 15.5853 17.3147 15.5853 16.7908 16.0556C15.8453 16.904 15.0348 17.8841 14.1328 18.777C13.5044 19.3989 12.8281 19.9936 12.2878 20.711C12.1486 20.8955 11.9295 21.0446 11.6857 21.0726C11.0193 21.1484 10.904 20.7703 11.0663 20.0809C11.1017 19.931 11.2146 19.786 11.3233 19.669C11.8504 19.1015 12.3875 18.5439 12.9229 17.9846C14.0744 16.7812 15.2432 15.5935 16.3708 14.3687C16.8839 13.8111 17.3905 13.2526 17.9695 12.7633C18.2916 12.4915 18.6845 12.5344 19.0115 12.7971C20.0345 13.6183 20.8417 14.6512 21.7568 15.5762C22.7543 16.5844 23.7139 17.6304 24.694 18.6576C25.6371 19.6468 26.5712 20.6451 27.5184 21.631C28.3841 22.5321 29.2086 23.4728 30.0982 24.3517C30.1855 24.4381 30.2588 24.5246 30.1805 24.6531C29.8124 25.2552 29.3569 25.7676 28.6938 26.0509C28.5208 26.125 28.3998 26.2996 28.193 26.3013C28.1419 26.326 28.0917 26.3507 28.0415 26.3754Z" fill="#FBB033"/>
<path d="M27.5613 30.6732C27.4896 30.8898 27.4344 30.9837 27.3504 31.0686C26.5193 31.9194 25.6907 32.7719 24.8654 33.6294C24.6883 33.8131 24.5359 34.0198 24.3621 34.206C24.2163 34.3625 24.0285 34.4663 23.844 34.2966C23.6595 34.1277 23.7188 33.8996 23.8003 33.6928C23.8176 33.6483 23.8671 33.6154 23.9033 33.5783C24.6207 32.8345 25.3447 32.0974 26.0539 31.3453C26.4559 30.9187 27.016 30.9162 27.5613 30.6732Z" fill="#FBB033"/>
<path d="M27.1626 32.9566C26.9567 33.8214 26.7647 34.6887 26.5407 35.5487C26.4097 36.0528 25.6676 36.2578 25.2862 35.8954C25.0202 35.6417 25.0663 35.2777 25.2228 35.0108C25.7055 34.1871 26.4196 33.5603 27.0852 32.8948C27.1107 32.9154 27.1362 32.936 27.1626 32.9566Z" fill="#FBB033"/>
<path d="M24.8736 31.5357C24.3168 31.9986 23.9478 32.5291 23.489 32.9755C23.4074 33.0546 23.3259 33.1254 23.2196 33.1822C23.0615 33.2654 22.9108 33.2704 22.7979 33.1682C22.6752 33.057 22.6908 32.8651 22.7485 32.7292C23.0384 32.0456 23.9914 31.4962 24.8736 31.5357Z" fill="#FBB033"/>
<path d="M16.4869 29.4954C16.1278 29.4962 15.7695 29.497 15.4104 29.497C15.7687 29.3134 16.1278 29.2714 16.4869 29.4954Z" fill="#0C0B0B"/>
<path d="M21.9462 29.1783C21.9504 29.2837 22.008 29.3356 22.1118 29.3405C22.0846 29.6124 21.812 29.441 21.7123 29.5918C21.6876 29.3768 21.8013 29.2681 21.9462 29.1783Z" fill="#0C0B0B"/>
<path d="M25.6124 27.4708C25.6124 27.5218 25.6116 27.5737 25.6116 27.6248C25.5795 27.6923 25.5144 27.7368 25.479 27.6577C25.432 27.5548 25.5309 27.5087 25.6124 27.4708Z" fill="#0C0B0B"/>
<path d="M12.6692 30.7327C12.6733 30.8513 12.6766 30.9691 12.5085 30.9715C12.5053 30.8537 12.5662 30.7788 12.6692 30.7327Z" fill="#0C0B0B"/>
<path d="M15.3972 23.1745C15.4013 23.2931 15.4038 23.4101 15.2366 23.4134C15.2349 23.2964 15.2926 23.2198 15.3972 23.1745Z" fill="#0C0B0B"/>
<path d="M16.7999 21.6935C16.804 21.8122 16.8065 21.9291 16.6393 21.9324C16.6385 21.8163 16.6953 21.7388 16.7999 21.6935Z" fill="#0C0B0B"/>
<path d="M35.2906 35.4152C35.4488 35.4325 35.4315 35.5495 35.429 35.6582C35.3351 35.6047 35.247 35.5478 35.2906 35.4152Z" fill="#0C0B0B"/>
<path d="M18.2809 20.136C18.285 20.2546 18.2875 20.3716 18.1202 20.374C18.1194 20.2579 18.1763 20.1805 18.2809 20.136Z" fill="#0C0B0B"/>
<path d="M21.7955 47.5702C21.9001 47.5751 21.9471 47.632 21.9454 47.7341C21.8359 47.7333 21.7757 47.688 21.7955 47.5702Z" fill="#0C0B0B"/>
<path d="M26.9336 27.7723C26.9435 27.8892 26.8957 27.9156 26.7961 27.8596C26.7911 27.7509 26.8858 27.7986 26.9336 27.7723Z" fill="#0C0B0B"/>
<path d="M29.5842 26.2922C29.5941 26.4091 29.5463 26.4355 29.4467 26.3795C29.4417 26.2699 29.5364 26.3177 29.5842 26.2922Z" fill="#0C0B0B"/>
<path d="M28.0415 26.3754C28.0917 26.3507 28.142 26.326 28.1914 26.3013C28.1716 26.3507 28.2054 26.4281 28.1263 26.4471C28.0744 26.4602 28.0382 26.4372 28.0415 26.3754Z" fill="#0C0B0B"/>
<path d="M20.775 30.8091C20.7857 30.9278 20.7363 30.9525 20.6358 30.8973C20.6292 30.7853 20.7256 30.8339 20.775 30.8091Z" fill="#0C0B0B"/>
<path d="M43.8462 17.1708C43.8585 17.2886 43.8124 17.319 43.7086 17.2622C43.7012 17.151 43.7959 17.1938 43.8462 17.1708Z" fill="#0C0B0B"/>
<path d="M31.9234 23.5115C31.9061 23.5304 31.8888 23.5493 31.8715 23.5691C31.8493 23.5139 31.874 23.5016 31.9234 23.5115Z" fill="#0C0B0B"/>
<path d="M33.551 33.7786C33.5799 33.7975 33.6087 33.8173 33.6375 33.8362C33.5799 33.8593 33.5667 33.8173 33.551 33.7786Z" fill="#0C0B0B"/>
<path d="M36.4611 37.2083C36.4817 37.2289 36.5023 37.2487 36.5229 37.2693C36.4668 37.2841 36.4479 37.2627 36.4611 37.2083Z" fill="#0C0B0B"/>
<path d="M20.387 39.49C20.3779 39.5155 20.3615 39.5328 20.3359 39.5427C20.3153 39.4892 20.3359 39.4752 20.387 39.49Z" fill="#0C0B0B"/>
<path d="M26.3908 40.153C26.2648 40.1357 26.2384 40.0427 26.2285 39.9372C26.3818 39.9348 26.3941 40.0385 26.3908 40.153Z" fill="#0C0B0B"/>
<path d="M31.6277 27.8588C31.6228 27.7492 31.715 27.7929 31.7661 27.7715C31.776 27.8893 31.7282 27.9156 31.6277 27.8588Z" fill="#0C0B0B"/>
<path d="M31.7669 26.4601C31.7167 26.4379 31.6244 26.484 31.6277 26.3753C31.7266 26.3185 31.776 26.3423 31.7669 26.4601Z" fill="#0C0B0B"/>
<path d="M35.5913 22.4061C35.5674 22.486 35.518 22.4967 35.4504 22.4571C35.4809 22.4226 35.5122 22.388 35.5427 22.3525C35.56 22.3698 35.5765 22.388 35.5913 22.4061Z" fill="#FEFEFE"/>
<path d="M18.3468 37.5205C18.3632 37.4785 18.3822 37.4389 18.439 37.4521C18.4085 37.4752 18.3781 37.4974 18.3468 37.5205Z" fill="#0C0B0B"/>
<rect x="0.5" y="0.5" width="59" height="59" rx="7.5" stroke="#FBB034"/>
</svg>
