<svg width="145" height="52" viewBox="0 0 145 52" fill="none" xmlns="http://www.w3.org/2000/svg">
<g filter="url(#filter0_d_49_125)">
<rect x="2" width="140.997" height="48" rx="4" fill="black" shape-rendering="crispEdges"/>
<path fill-rule="evenodd" clip-rule="evenodd" d="M31.8964 13.421C30.2483 14.1885 29.1997 15.6035 29.0379 17.2788C28.945 18.2403 29.0137 18.2723 30.2601 17.8476C31.8733 17.2979 33.1478 15.6692 33.3587 13.8872C33.4524 13.0957 33.4274 12.9984 33.1305 13C32.9471 13.0009 32.3917 13.1905 31.8964 13.421ZM31.9144 18.4571C31.6232 18.539 30.8818 18.7921 30.2668 19.02L29.1489 19.434L27.7886 18.9522C26.2279 18.3994 24.7546 18.3233 23.7448 18.7432C20.3071 20.173 19.1029 24.1724 20.6906 28.8849C21.2922 30.6701 21.7706 31.5957 22.8516 33.0665C24.2967 35.0324 25.3176 35.3812 27.4607 34.6416C29.1258 34.0668 29.6664 34.0656 31.3098 34.6329C32.85 35.1648 33.6547 35.1252 34.646 34.4691C35.4213 33.9562 37.0864 31.5583 37.6336 30.1674L37.9971 29.2433L37.5062 28.9894C36.6391 28.5411 35.5765 27.2198 35.2801 26.2218C34.7191 24.3331 35.0704 22.8884 36.4603 21.3677L37.3501 20.394L36.7657 19.7911C36.4441 19.4594 35.83 19.0228 35.4005 18.8211C34.5364 18.4149 32.7343 18.2267 31.9144 18.4571Z" fill="white"/>
<path d="M46.7171 18.5V11.84H48.8771C49.4111 11.84 49.8761 11.936 50.2721 12.128C50.6681 12.314 50.9981 12.566 51.2621 12.884C51.5261 13.202 51.7241 13.559 51.8561 13.955C51.9881 14.351 52.0541 14.756 52.0541 15.17C52.0541 15.584 51.9881 15.989 51.8561 16.385C51.7241 16.781 51.5261 17.138 51.2621 17.456C50.9981 17.774 50.6681 18.029 50.2721 18.221C49.8761 18.407 49.4111 18.5 48.8771 18.5H46.7171ZM48.8411 12.614H47.5991V17.726H48.8411C49.2311 17.726 49.5701 17.654 49.8581 17.51C50.1521 17.366 50.3951 17.174 50.5871 16.934C50.7851 16.688 50.9321 16.412 51.0281 16.106C51.1241 15.8 51.1721 15.488 51.1721 15.17C51.1721 14.852 51.1241 14.54 51.0281 14.234C50.9321 13.928 50.7851 13.655 50.5871 13.415C50.3951 13.169 50.1521 12.974 49.8581 12.83C49.5701 12.686 49.2311 12.614 48.8411 12.614ZM55.4339 18.59C54.9239 18.59 54.4949 18.473 54.1469 18.239C53.7989 17.999 53.5349 17.69 53.3549 17.312C53.1749 16.934 53.0849 16.535 53.0849 16.115C53.0849 15.689 53.1749 15.29 53.3549 14.918C53.5349 14.54 53.7989 14.234 54.1469 14C54.4949 13.76 54.9239 13.64 55.4339 13.64C55.9439 13.64 56.3729 13.76 56.7209 14C57.0689 14.234 57.3329 14.54 57.5129 14.918C57.6929 15.29 57.7829 15.689 57.7829 16.115C57.7829 16.535 57.6929 16.934 57.5129 17.312C57.3329 17.69 57.0689 17.999 56.7209 18.239C56.3729 18.473 55.9439 18.59 55.4339 18.59ZM55.4339 17.843C55.7579 17.843 56.0279 17.762 56.2439 17.6C56.4659 17.432 56.6309 17.216 56.7389 16.952C56.8529 16.688 56.9099 16.409 56.9099 16.115C56.9099 15.815 56.8529 15.536 56.7389 15.278C56.6309 15.014 56.4659 14.801 56.2439 14.639C56.0279 14.471 55.7579 14.387 55.4339 14.387C55.1159 14.387 54.8459 14.471 54.6239 14.639C54.4019 14.801 54.2339 15.014 54.1199 15.278C54.0119 15.536 53.9579 15.815 53.9579 16.115C53.9579 16.409 54.0119 16.688 54.1199 16.952C54.2339 17.216 54.4019 17.432 54.6239 17.6C54.8459 17.762 55.1159 17.843 55.4339 17.843ZM59.9976 18.5L58.4586 13.73H59.3316L60.4656 17.348L61.6536 13.73H62.4636L63.6426 17.348L64.7856 13.73H65.6586L64.1106 18.5H63.1926L62.0586 14.981L60.9246 18.5H59.9976ZM66.6046 18.5V13.73H67.4596V14.423H67.5136C67.5556 14.351 67.6246 14.252 67.7206 14.126C67.8226 14 67.9666 13.889 68.1526 13.793C68.3386 13.691 68.5726 13.64 68.8546 13.64C69.2026 13.64 69.4996 13.721 69.7456 13.883C69.9916 14.039 70.1776 14.252 70.3036 14.522C70.4356 14.792 70.5016 15.095 70.5016 15.431V18.5H69.6466V15.485C69.6466 15.167 69.5566 14.903 69.3766 14.693C69.2026 14.483 68.9476 14.378 68.6116 14.378C68.3416 14.378 68.1226 14.447 67.9546 14.585C67.7866 14.717 67.6606 14.894 67.5766 15.116C67.4986 15.332 67.4596 15.563 67.4596 15.809V18.5H66.6046ZM71.8538 18.5L71.8628 11.66H72.7088V18.5H71.8538ZM76.3167 18.59C75.8067 18.59 75.3777 18.473 75.0297 18.239C74.6817 17.999 74.4177 17.69 74.2377 17.312C74.0577 16.934 73.9677 16.535 73.9677 16.115C73.9677 15.689 74.0577 15.29 74.2377 14.918C74.4177 14.54 74.6817 14.234 75.0297 14C75.3777 13.76 75.8067 13.64 76.3167 13.64C76.8267 13.64 77.2557 13.76 77.6037 14C77.9517 14.234 78.2157 14.54 78.3957 14.918C78.5757 15.29 78.6657 15.689 78.6657 16.115C78.6657 16.535 78.5757 16.934 78.3957 17.312C78.2157 17.69 77.9517 17.999 77.6037 18.239C77.2557 18.473 76.8267 18.59 76.3167 18.59ZM76.3167 17.843C76.6407 17.843 76.9107 17.762 77.1267 17.6C77.3487 17.432 77.5137 17.216 77.6217 16.952C77.7357 16.688 77.7927 16.409 77.7927 16.115C77.7927 15.815 77.7357 15.536 77.6217 15.278C77.5137 15.014 77.3487 14.801 77.1267 14.639C76.9107 14.471 76.6407 14.387 76.3167 14.387C75.9987 14.387 75.7287 14.471 75.5067 14.639C75.2847 14.801 75.1167 15.014 75.0027 15.278C74.8947 15.536 74.8407 15.815 74.8407 16.115C74.8407 16.409 74.8947 16.688 75.0027 16.952C75.1167 17.216 75.2847 17.432 75.5067 17.6C75.7287 17.762 75.9987 17.843 76.3167 17.843ZM81.8582 13.64C82.1582 13.64 82.4102 13.688 82.6142 13.784C82.8182 13.88 82.9832 13.994 83.1092 14.126C83.2352 14.252 83.3312 14.372 83.3972 14.486H83.4512V13.73H84.3062V18.5H83.4512V17.744H83.3972C83.3312 17.858 83.2352 17.981 83.1092 18.113C82.9832 18.245 82.8182 18.359 82.6142 18.455C82.4102 18.545 82.1582 18.59 81.8582 18.59C81.4982 18.59 81.1832 18.521 80.9132 18.383C80.6432 18.239 80.4182 18.05 80.2382 17.816C80.0582 17.576 79.9232 17.309 79.8332 17.015C79.7432 16.721 79.6982 16.421 79.6982 16.115C79.6982 15.809 79.7432 15.509 79.8332 15.215C79.9232 14.921 80.0582 14.657 80.2382 14.423C80.4182 14.183 80.6432 13.994 80.9132 13.856C81.1832 13.712 81.4982 13.64 81.8582 13.64ZM82.0022 14.369C81.6842 14.369 81.4172 14.456 81.2012 14.63C80.9852 14.798 80.8232 15.014 80.7152 15.278C80.6132 15.542 80.5622 15.821 80.5622 16.115C80.5622 16.403 80.6132 16.682 80.7152 16.952C80.8232 17.216 80.9852 17.435 81.2012 17.609C81.4172 17.777 81.6842 17.861 82.0022 17.861C82.3202 17.861 82.5842 17.777 82.7942 17.609C83.0102 17.435 83.1692 17.216 83.2712 16.952C83.3792 16.682 83.4332 16.403 83.4332 16.115C83.4332 15.821 83.3792 15.542 83.2712 15.278C83.1692 15.014 83.0102 14.798 82.7942 14.63C82.5842 14.456 82.3202 14.369 82.0022 14.369ZM87.6326 18.59C87.2726 18.59 86.9576 18.521 86.6876 18.383C86.4176 18.239 86.1926 18.05 86.0126 17.816C85.8326 17.576 85.6976 17.309 85.6076 17.015C85.5176 16.721 85.4726 16.421 85.4726 16.115C85.4726 15.809 85.5176 15.509 85.6076 15.215C85.6976 14.921 85.8326 14.657 86.0126 14.423C86.1926 14.183 86.4176 13.994 86.6876 13.856C86.9576 13.712 87.2726 13.64 87.6326 13.64C87.9326 13.64 88.1846 13.688 88.3886 13.784C88.5926 13.88 88.7576 13.994 88.8836 14.126C89.0096 14.252 89.1056 14.372 89.1716 14.486H89.2256V11.66H90.0806V18.5H89.2256V17.744H89.1716C89.1056 17.858 89.0096 17.981 88.8836 18.113C88.7576 18.245 88.5926 18.359 88.3886 18.455C88.1846 18.545 87.9326 18.59 87.6326 18.59ZM87.7766 17.861C88.0946 17.861 88.3586 17.777 88.5686 17.609C88.7846 17.435 88.9436 17.216 89.0456 16.952C89.1536 16.682 89.2076 16.403 89.2076 16.115C89.2076 15.821 89.1536 15.542 89.0456 15.278C88.9436 15.014 88.7846 14.798 88.5686 14.63C88.3586 14.456 88.0946 14.369 87.7766 14.369C87.4586 14.369 87.1916 14.456 86.9756 14.63C86.7596 14.798 86.5976 15.014 86.4896 15.278C86.3876 15.542 86.3366 15.821 86.3366 16.115C86.3366 16.403 86.3876 16.682 86.4896 16.952C86.5976 17.216 86.7596 17.435 86.9756 17.609C87.1916 17.777 87.4586 17.861 87.7766 17.861ZM95.7669 18.59C95.2569 18.59 94.8279 18.473 94.4799 18.239C94.1319 17.999 93.8679 17.69 93.6879 17.312C93.5079 16.934 93.4179 16.535 93.4179 16.115C93.4179 15.689 93.5079 15.29 93.6879 14.918C93.8679 14.54 94.1319 14.234 94.4799 14C94.8279 13.76 95.2569 13.64 95.7669 13.64C96.2769 13.64 96.7059 13.76 97.0539 14C97.4019 14.234 97.6659 14.54 97.8459 14.918C98.0259 15.29 98.1159 15.689 98.1159 16.115C98.1159 16.535 98.0259 16.934 97.8459 17.312C97.6659 17.69 97.4019 17.999 97.0539 18.239C96.7059 18.473 96.2769 18.59 95.7669 18.59ZM95.7669 17.843C96.0909 17.843 96.3609 17.762 96.5769 17.6C96.7989 17.432 96.9639 17.216 97.0719 16.952C97.1859 16.688 97.2429 16.409 97.2429 16.115C97.2429 15.815 97.1859 15.536 97.0719 15.278C96.9639 15.014 96.7989 14.801 96.5769 14.639C96.3609 14.471 96.0909 14.387 95.7669 14.387C95.4489 14.387 95.1789 14.471 94.9569 14.639C94.7349 14.801 94.5669 15.014 94.4529 15.278C94.3449 15.536 94.2909 15.815 94.2909 16.115C94.2909 16.409 94.3449 16.688 94.4529 16.952C94.5669 17.216 94.7349 17.432 94.9569 17.6C95.1789 17.762 95.4489 17.843 95.7669 17.843ZM99.2823 18.5V13.73H100.137V14.423H100.191C100.233 14.351 100.302 14.252 100.398 14.126C100.5 14 100.644 13.889 100.83 13.793C101.016 13.691 101.25 13.64 101.532 13.64C101.88 13.64 102.177 13.721 102.423 13.883C102.669 14.039 102.855 14.252 102.981 14.522C103.113 14.792 103.179 15.095 103.179 15.431V18.5H102.324V15.485C102.324 15.167 102.234 14.903 102.054 14.693C101.88 14.483 101.625 14.378 101.289 14.378C101.019 14.378 100.8 14.447 100.632 14.585C100.464 14.717 100.338 14.894 100.254 15.116C100.176 15.332 100.137 15.563 100.137 15.809V18.5H99.2823ZM108.541 18.59C108.049 18.59 107.677 18.464 107.425 18.212C107.179 17.96 107.056 17.606 107.056 17.15V14.432H106.201V13.73H107.056V12.533H107.911V13.73H109.072V14.432H107.911V17.15C107.911 17.39 107.977 17.567 108.109 17.681C108.241 17.789 108.433 17.843 108.685 17.843C108.817 17.843 108.943 17.834 109.063 17.816C109.183 17.798 109.243 17.789 109.243 17.789V18.518C109.243 18.518 109.174 18.53 109.036 18.554C108.898 18.578 108.733 18.59 108.541 18.59ZM110.455 18.5V11.66H111.31V14.423H111.364C111.406 14.351 111.475 14.252 111.571 14.126C111.673 14 111.817 13.889 112.003 13.793C112.189 13.691 112.423 13.64 112.705 13.64C113.053 13.64 113.35 13.721 113.596 13.883C113.842 14.039 114.028 14.252 114.154 14.522C114.286 14.792 114.352 15.095 114.352 15.431V18.5H113.497V15.485C113.497 15.167 113.407 14.903 113.227 14.693C113.053 14.483 112.798 14.378 112.462 14.378C112.192 14.378 111.973 14.447 111.805 14.585C111.637 14.717 111.511 14.894 111.427 15.116C111.349 15.332 111.31 15.563 111.31 15.809V18.5H110.455ZM117.781 18.59C117.391 18.59 117.052 18.521 116.764 18.383C116.482 18.239 116.248 18.047 116.062 17.807C115.882 17.567 115.747 17.303 115.657 17.015C115.567 16.721 115.522 16.421 115.522 16.115C115.522 15.815 115.564 15.518 115.648 15.224C115.738 14.93 115.873 14.663 116.053 14.423C116.239 14.183 116.47 13.994 116.746 13.856C117.028 13.712 117.361 13.64 117.745 13.64C118.153 13.64 118.513 13.733 118.825 13.919C119.137 14.105 119.383 14.381 119.563 14.747C119.743 15.113 119.833 15.572 119.833 16.124V16.376H116.386C116.404 16.646 116.467 16.895 116.575 17.123C116.689 17.345 116.848 17.525 117.052 17.663C117.256 17.795 117.499 17.861 117.781 17.861C118.027 17.861 118.225 17.822 118.375 17.744C118.531 17.66 118.654 17.564 118.744 17.456C118.834 17.348 118.894 17.255 118.924 17.177C118.96 17.093 118.978 17.051 118.978 17.051H119.779C119.779 17.051 119.764 17.105 119.734 17.213C119.704 17.315 119.65 17.441 119.572 17.591C119.494 17.741 119.38 17.894 119.23 18.05C119.08 18.2 118.888 18.329 118.654 18.437C118.42 18.539 118.129 18.59 117.781 18.59ZM116.395 15.71H118.996C118.984 15.398 118.918 15.146 118.798 14.954C118.678 14.756 118.525 14.609 118.339 14.513C118.153 14.417 117.955 14.369 117.745 14.369C117.367 14.369 117.058 14.492 116.818 14.738C116.578 14.978 116.437 15.302 116.395 15.71Z" fill="white"/>
<path d="M46.6371 34.5L50.7651 22.66H53.1651L57.3091 34.5H55.3411L54.4291 31.844H49.5171L48.6051 34.5H46.6371ZM50.0771 30.18H53.8691L51.9811 24.66L50.0771 30.18ZM59.0062 37.636V26.02H60.8302V27.284H60.9262C61.0329 27.124 61.1875 26.932 61.3902 26.708C61.6035 26.484 61.8862 26.2867 62.2382 26.116C62.6009 25.9453 63.0542 25.86 63.5982 25.86C64.2275 25.86 64.7822 25.988 65.2622 26.244C65.7422 26.4893 66.1369 26.8253 66.4462 27.252C66.7662 27.668 67.0009 28.1373 67.1502 28.66C67.3102 29.1827 67.3902 29.716 67.3902 30.26C67.3902 30.804 67.3102 31.3373 67.1502 31.86C67.0009 32.3827 66.7662 32.8573 66.4462 33.284C66.1369 33.7 65.7422 34.036 65.2622 34.292C64.7822 34.5373 64.2275 34.66 63.5982 34.66C63.0542 34.66 62.6009 34.5747 62.2382 34.404C61.8862 34.2333 61.6035 34.036 61.3902 33.812C61.1875 33.588 61.0329 33.396 60.9262 33.236H60.8302V37.636H59.0062ZM60.8302 30.26C60.8302 30.74 60.9155 31.1987 61.0862 31.636C61.2675 32.0733 61.5289 32.436 61.8702 32.724C62.2222 33.0013 62.6595 33.14 63.1822 33.14C63.7155 33.14 64.1529 33.0013 64.4942 32.724C64.8462 32.436 65.1075 32.0733 65.2782 31.636C65.4595 31.1987 65.5502 30.74 65.5502 30.26C65.5502 29.78 65.4595 29.3213 65.2782 28.884C65.1075 28.4467 64.8462 28.0893 64.4942 27.812C64.1529 27.524 63.7155 27.38 63.1822 27.38C62.6595 27.38 62.2222 27.524 61.8702 27.812C61.5289 28.0893 61.2675 28.4467 61.0862 28.884C60.9155 29.3213 60.8302 29.78 60.8302 30.26ZM69.3306 37.636V26.02H71.1546V27.284H71.2506C71.3572 27.124 71.5119 26.932 71.7146 26.708C71.9279 26.484 72.2106 26.2867 72.5626 26.116C72.9252 25.9453 73.3786 25.86 73.9226 25.86C74.5519 25.86 75.1066 25.988 75.5866 26.244C76.0666 26.4893 76.4612 26.8253 76.7706 27.252C77.0906 27.668 77.3252 28.1373 77.4746 28.66C77.6346 29.1827 77.7146 29.716 77.7146 30.26C77.7146 30.804 77.6346 31.3373 77.4746 31.86C77.3252 32.3827 77.0906 32.8573 76.7706 33.284C76.4612 33.7 76.0666 34.036 75.5866 34.292C75.1066 34.5373 74.5519 34.66 73.9226 34.66C73.3786 34.66 72.9252 34.5747 72.5626 34.404C72.2106 34.2333 71.9279 34.036 71.7146 33.812C71.5119 33.588 71.3572 33.396 71.2506 33.236H71.1546V37.636H69.3306ZM71.1546 30.26C71.1546 30.74 71.2399 31.1987 71.4106 31.636C71.5919 32.0733 71.8532 32.436 72.1946 32.724C72.5466 33.0013 72.9839 33.14 73.5066 33.14C74.0399 33.14 74.4772 33.0013 74.8186 32.724C75.1706 32.436 75.4319 32.0733 75.6026 31.636C75.7839 31.1987 75.8746 30.74 75.8746 30.26C75.8746 29.78 75.7839 29.3213 75.6026 28.884C75.4319 28.4467 75.1706 28.0893 74.8186 27.812C74.4772 27.524 74.0399 27.38 73.5066 27.38C72.9839 27.38 72.5466 27.524 72.1946 27.812C71.8532 28.0893 71.5919 28.4467 71.4106 28.884C71.2399 29.3213 71.1546 29.78 71.1546 30.26ZM87.3257 34.66C86.6217 34.66 86.0137 34.5693 85.5017 34.388C85.0004 34.2067 84.5844 33.9773 84.2537 33.7C83.923 33.412 83.6564 33.108 83.4537 32.788C83.2617 32.468 83.1177 32.1693 83.0217 31.892C82.9257 31.604 82.8617 31.3693 82.8297 31.188C82.7977 31.0067 82.7817 30.916 82.7817 30.916H84.6857C84.6857 30.916 84.7017 30.9907 84.7337 31.14C84.7657 31.2787 84.8297 31.4547 84.9257 31.668C85.0217 31.8707 85.1657 32.0787 85.3577 32.292C85.5604 32.4947 85.8217 32.6707 86.1417 32.82C86.4724 32.9587 86.8884 33.028 87.3897 33.028C88.1364 33.028 88.7177 32.852 89.1337 32.5C89.5604 32.148 89.7737 31.7 89.7737 31.156C89.7737 30.6867 89.6137 30.324 89.2937 30.068C88.9844 29.8013 88.5257 29.5987 87.9177 29.46L86.3497 29.092C85.763 28.964 85.219 28.7773 84.7177 28.532C84.227 28.276 83.827 27.9347 83.5177 27.508C83.219 27.0813 83.0697 26.5427 83.0697 25.892C83.0697 25.188 83.2404 24.5853 83.5817 24.084C83.9337 23.572 84.4137 23.1827 85.0217 22.916C85.6404 22.6387 86.3444 22.5 87.1337 22.5C87.9017 22.5 88.5364 22.6173 89.0377 22.852C89.539 23.076 89.939 23.3533 90.2377 23.684C90.5364 24.0147 90.755 24.3507 90.8937 24.692C91.043 25.0227 91.139 25.3053 91.1817 25.54C91.2244 25.764 91.2457 25.876 91.2457 25.876H89.4217C89.4217 25.876 89.4004 25.7907 89.3577 25.62C89.315 25.4387 89.2137 25.2307 89.0537 24.996C88.9044 24.7613 88.6697 24.5587 88.3497 24.388C88.0404 24.2067 87.619 24.116 87.0857 24.116C86.3497 24.116 85.8004 24.2867 85.4377 24.628C85.075 24.9693 84.8937 25.348 84.8937 25.764C84.8937 26.1693 85.0484 26.4947 85.3577 26.74C85.667 26.9747 86.083 27.1507 86.6057 27.268L88.2857 27.668C88.9044 27.8067 89.4644 28.0147 89.9657 28.292C90.4777 28.5693 90.883 28.9373 91.1817 29.396C91.4804 29.844 91.6297 30.3933 91.6297 31.044C91.6297 31.7053 91.4644 32.3133 91.1337 32.868C90.8137 33.412 90.3337 33.8493 89.6937 34.18C89.0537 34.5 88.2644 34.66 87.3257 34.66ZM96.9182 34.66C96.2462 34.66 95.7075 34.5373 95.3022 34.292C94.8969 34.0467 94.6035 33.7213 94.4222 33.316C94.2515 32.9 94.1662 32.452 94.1662 31.972V27.492H92.6782V26.02H94.1662V23.908H95.9902V26.02H97.9742V27.492H95.9902V31.94C95.9902 32.74 96.4329 33.14 97.3182 33.14C97.5422 33.14 97.7502 33.124 97.9422 33.092C98.1342 33.06 98.2302 33.044 98.2302 33.044V34.532C98.2302 34.532 98.0969 34.5533 97.8302 34.596C97.5742 34.6387 97.2702 34.66 96.9182 34.66ZM103.815 34.66C102.887 34.66 102.103 34.452 101.463 34.036C100.833 33.62 100.353 33.076 100.023 32.404C99.7028 31.732 99.5428 31.0173 99.5428 30.26C99.5428 29.5027 99.7028 28.788 100.023 28.116C100.353 27.444 100.833 26.9 101.463 26.484C102.103 26.068 102.887 25.86 103.815 25.86C104.732 25.86 105.505 26.068 106.135 26.484C106.775 26.9 107.255 27.444 107.575 28.116C107.905 28.788 108.071 29.5027 108.071 30.26C108.071 31.0173 107.905 31.732 107.575 32.404C107.255 33.076 106.775 33.62 106.135 34.036C105.505 34.452 104.732 34.66 103.815 34.66ZM103.815 33.108C104.337 33.108 104.775 32.9747 105.127 32.708C105.489 32.4413 105.761 32.0893 105.943 31.652C106.135 31.2147 106.231 30.7507 106.231 30.26C106.231 29.7587 106.135 29.2947 105.943 28.868C105.761 28.4307 105.489 28.0787 105.127 27.812C104.775 27.5453 104.337 27.412 103.815 27.412C103.292 27.412 102.849 27.5453 102.487 27.812C102.124 28.0787 101.852 28.4307 101.671 28.868C101.489 29.2947 101.399 29.7587 101.399 30.26C101.399 30.7507 101.489 31.2147 101.671 31.652C101.852 32.0893 102.124 32.4413 102.487 32.708C102.849 32.9747 103.292 33.108 103.815 33.108ZM109.886 34.5V26.02H111.71V27.14H111.774C111.934 26.8093 112.185 26.516 112.526 26.26C112.878 25.9933 113.385 25.86 114.046 25.86C114.249 25.86 114.42 25.8707 114.558 25.892C114.708 25.9133 114.782 25.924 114.782 25.924V27.684C114.782 27.684 114.702 27.6733 114.542 27.652C114.382 27.6307 114.201 27.62 113.998 27.62C113.252 27.62 112.681 27.8333 112.286 28.26C111.902 28.676 111.71 29.3533 111.71 30.292V34.5H109.886ZM119.632 34.66C118.917 34.66 118.299 34.5373 117.776 34.292C117.264 34.036 116.837 33.7 116.496 33.284C116.165 32.8573 115.915 32.3827 115.744 31.86C115.584 31.3373 115.504 30.804 115.504 30.26C115.504 29.7267 115.584 29.1987 115.744 28.676C115.904 28.1533 116.149 27.6787 116.48 27.252C116.811 26.8253 117.232 26.4893 117.744 26.244C118.256 25.988 118.859 25.86 119.552 25.86C120.299 25.86 120.955 26.0307 121.52 26.372C122.096 26.7027 122.544 27.1987 122.864 27.86C123.195 28.5107 123.36 29.3213 123.36 30.292V30.788H117.344C117.387 31.4387 117.605 31.9987 118 32.468C118.395 32.9373 118.939 33.172 119.632 33.172C120.027 33.172 120.352 33.108 120.608 32.98C120.864 32.8413 121.061 32.6867 121.2 32.516C121.339 32.3453 121.435 32.196 121.488 32.068C121.552 31.94 121.584 31.876 121.584 31.876H123.28C123.28 31.876 123.253 31.972 123.2 32.164C123.147 32.3453 123.045 32.5747 122.896 32.852C122.757 33.1293 122.555 33.4067 122.288 33.684C122.021 33.9613 121.669 34.196 121.232 34.388C120.795 34.5693 120.261 34.66 119.632 34.66ZM117.36 29.508H121.6C121.557 28.7613 121.333 28.212 120.928 27.86C120.533 27.508 120.069 27.332 119.536 27.332C118.939 27.332 118.443 27.5293 118.048 27.924C117.653 28.308 117.424 28.836 117.36 29.508Z" fill="white"/>
<rect x="2.5" y="0.5" width="139.997" height="47" rx="3.5" stroke="#003A5D" stroke-opacity="0.1" shape-rendering="crispEdges"/>
</g>
<defs>
<filter id="filter0_d_49_125" x="0" y="0" width="144.997" height="52" filterUnits="userSpaceOnUse" color-interpolation-filters="sRGB">
<feFlood flood-opacity="0" result="BackgroundImageFix"/>
<feColorMatrix in="SourceAlpha" type="matrix" values="0 0 0 0 0 0 0 0 0 0 0 0 0 0 0 0 0 0 127 0" result="hardAlpha"/>
<feOffset dy="2"/>
<feGaussianBlur stdDeviation="1"/>
<feComposite in2="hardAlpha" operator="out"/>
<feColorMatrix type="matrix" values="0 0 0 0 0.0275868 0 0 0 0 0.0285031 0 0 0 0 0.0291667 0 0 0 0.11 0"/>
<feBlend mode="normal" in2="BackgroundImageFix" result="effect1_dropShadow_49_125"/>
<feBlend mode="normal" in="SourceGraphic" in2="effect1_dropShadow_49_125" result="shape"/>
</filter>
</defs>
</svg>
