<svg width="147" height="52" viewBox="0 0 147 52" fill="none" xmlns="http://www.w3.org/2000/svg">
<g filter="url(#filter0_d_63_1669)">
<rect x="2.99854" width="141.999" height="48" rx="4" fill="black" shape-rendering="crispEdges"/>
<path fill-rule="evenodd" clip-rule="evenodd" d="M33.3957 13.421C31.7475 14.1885 30.699 15.6035 30.5371 17.2788C30.4443 18.2403 30.5129 18.2723 31.7593 17.8476C33.3726 17.2979 34.647 15.6692 34.858 13.8872C34.9517 13.0957 34.9266 12.9984 34.6297 13C34.4463 13.0009 33.891 13.1905 33.3957 13.421ZM33.4137 18.4571C33.1224 18.539 32.381 18.7921 31.7661 19.02L30.6482 19.434L29.2879 18.9522C27.7271 18.3994 26.2539 18.3233 25.244 18.7432C21.8063 20.173 20.6021 24.1724 22.1899 28.8849C22.7915 30.6701 23.2699 31.5957 24.3509 33.0665C25.796 35.0324 26.8168 35.3812 28.9599 34.6416C30.625 34.0668 31.1657 34.0656 32.8091 34.6329C34.3492 35.1648 35.154 35.1252 36.1453 34.4691C36.9206 33.9562 38.5857 31.5583 39.1329 30.1674L39.4963 29.2433L39.0054 28.9894C38.1384 28.5411 37.0757 27.2198 36.7794 26.2218C36.2184 24.3331 36.5697 22.8884 37.9596 21.3677L38.8494 20.394L38.265 19.7911C37.9433 19.4594 37.3292 19.0228 36.8998 18.8211C36.0357 18.4149 34.2336 18.2267 33.4137 18.4571Z" fill="white"/>
<path d="M48.2163 18.5V11.84H50.3763C50.9103 11.84 51.3753 11.936 51.7713 12.128C52.1673 12.314 52.4973 12.566 52.7613 12.884C53.0253 13.202 53.2233 13.559 53.3553 13.955C53.4873 14.351 53.5533 14.756 53.5533 15.17C53.5533 15.584 53.4873 15.989 53.3553 16.385C53.2233 16.781 53.0253 17.138 52.7613 17.456C52.4973 17.774 52.1673 18.029 51.7713 18.221C51.3753 18.407 50.9103 18.5 50.3763 18.5H48.2163ZM50.3403 12.614H49.0983V17.726H50.3403C50.7303 17.726 51.0693 17.654 51.3573 17.51C51.6513 17.366 51.8943 17.174 52.0863 16.934C52.2843 16.688 52.4313 16.412 52.5273 16.106C52.6233 15.8 52.6713 15.488 52.6713 15.17C52.6713 14.852 52.6233 14.54 52.5273 14.234C52.4313 13.928 52.2843 13.655 52.0863 13.415C51.8943 13.169 51.6513 12.974 51.3573 12.83C51.0693 12.686 50.7303 12.614 50.3403 12.614ZM56.9332 18.59C56.4232 18.59 55.9942 18.473 55.6462 18.239C55.2982 17.999 55.0342 17.69 54.8542 17.312C54.6742 16.934 54.5842 16.535 54.5842 16.115C54.5842 15.689 54.6742 15.29 54.8542 14.918C55.0342 14.54 55.2982 14.234 55.6462 14C55.9942 13.76 56.4232 13.64 56.9332 13.64C57.4432 13.64 57.8722 13.76 58.2202 14C58.5682 14.234 58.8322 14.54 59.0122 14.918C59.1922 15.29 59.2822 15.689 59.2822 16.115C59.2822 16.535 59.1922 16.934 59.0122 17.312C58.8322 17.69 58.5682 17.999 58.2202 18.239C57.8722 18.473 57.4432 18.59 56.9332 18.59ZM56.9332 17.843C57.2572 17.843 57.5272 17.762 57.7432 17.6C57.9652 17.432 58.1302 17.216 58.2382 16.952C58.3522 16.688 58.4092 16.409 58.4092 16.115C58.4092 15.815 58.3522 15.536 58.2382 15.278C58.1302 15.014 57.9652 14.801 57.7432 14.639C57.5272 14.471 57.2572 14.387 56.9332 14.387C56.6152 14.387 56.3452 14.471 56.1232 14.639C55.9012 14.801 55.7332 15.014 55.6192 15.278C55.5112 15.536 55.4572 15.815 55.4572 16.115C55.4572 16.409 55.5112 16.688 55.6192 16.952C55.7332 17.216 55.9012 17.432 56.1232 17.6C56.3452 17.762 56.6152 17.843 56.9332 17.843ZM61.4968 18.5L59.9578 13.73H60.8308L61.9648 17.348L63.1528 13.73H63.9628L65.1418 17.348L66.2848 13.73H67.1578L65.6098 18.5H64.6918L63.5578 14.981L62.4238 18.5H61.4968ZM68.1039 18.5V13.73H68.9589V14.423H69.0129C69.0549 14.351 69.1239 14.252 69.2199 14.126C69.3219 14 69.4659 13.889 69.6519 13.793C69.8379 13.691 70.0719 13.64 70.3539 13.64C70.7019 13.64 70.9989 13.721 71.2449 13.883C71.4909 14.039 71.6769 14.252 71.8029 14.522C71.9349 14.792 72.0009 15.095 72.0009 15.431V18.5H71.1459V15.485C71.1459 15.167 71.0559 14.903 70.8759 14.693C70.7019 14.483 70.4469 14.378 70.1109 14.378C69.8409 14.378 69.6219 14.447 69.4539 14.585C69.2859 14.717 69.1599 14.894 69.0759 15.116C68.9979 15.332 68.9589 15.563 68.9589 15.809V18.5H68.1039ZM73.3531 18.5L73.3621 11.66H74.2081V18.5H73.3531ZM77.816 18.59C77.306 18.59 76.877 18.473 76.529 18.239C76.181 17.999 75.917 17.69 75.737 17.312C75.557 16.934 75.467 16.535 75.467 16.115C75.467 15.689 75.557 15.29 75.737 14.918C75.917 14.54 76.181 14.234 76.529 14C76.877 13.76 77.306 13.64 77.816 13.64C78.326 13.64 78.755 13.76 79.103 14C79.451 14.234 79.715 14.54 79.895 14.918C80.075 15.29 80.165 15.689 80.165 16.115C80.165 16.535 80.075 16.934 79.895 17.312C79.715 17.69 79.451 17.999 79.103 18.239C78.755 18.473 78.326 18.59 77.816 18.59ZM77.816 17.843C78.14 17.843 78.41 17.762 78.626 17.6C78.848 17.432 79.013 17.216 79.121 16.952C79.235 16.688 79.292 16.409 79.292 16.115C79.292 15.815 79.235 15.536 79.121 15.278C79.013 15.014 78.848 14.801 78.626 14.639C78.41 14.471 78.14 14.387 77.816 14.387C77.498 14.387 77.228 14.471 77.006 14.639C76.784 14.801 76.616 15.014 76.502 15.278C76.394 15.536 76.34 15.815 76.34 16.115C76.34 16.409 76.394 16.688 76.502 16.952C76.616 17.216 76.784 17.432 77.006 17.6C77.228 17.762 77.498 17.843 77.816 17.843ZM83.3575 13.64C83.6575 13.64 83.9095 13.688 84.1135 13.784C84.3175 13.88 84.4825 13.994 84.6085 14.126C84.7345 14.252 84.8305 14.372 84.8965 14.486H84.9505V13.73H85.8055V18.5H84.9505V17.744H84.8965C84.8305 17.858 84.7345 17.981 84.6085 18.113C84.4825 18.245 84.3175 18.359 84.1135 18.455C83.9095 18.545 83.6575 18.59 83.3575 18.59C82.9975 18.59 82.6825 18.521 82.4125 18.383C82.1425 18.239 81.9175 18.05 81.7375 17.816C81.5575 17.576 81.4225 17.309 81.3325 17.015C81.2425 16.721 81.1975 16.421 81.1975 16.115C81.1975 15.809 81.2425 15.509 81.3325 15.215C81.4225 14.921 81.5575 14.657 81.7375 14.423C81.9175 14.183 82.1425 13.994 82.4125 13.856C82.6825 13.712 82.9975 13.64 83.3575 13.64ZM83.5015 14.369C83.1835 14.369 82.9165 14.456 82.7005 14.63C82.4845 14.798 82.3225 15.014 82.2145 15.278C82.1125 15.542 82.0615 15.821 82.0615 16.115C82.0615 16.403 82.1125 16.682 82.2145 16.952C82.3225 17.216 82.4845 17.435 82.7005 17.609C82.9165 17.777 83.1835 17.861 83.5015 17.861C83.8195 17.861 84.0835 17.777 84.2935 17.609C84.5095 17.435 84.6685 17.216 84.7705 16.952C84.8785 16.682 84.9325 16.403 84.9325 16.115C84.9325 15.821 84.8785 15.542 84.7705 15.278C84.6685 15.014 84.5095 14.798 84.2935 14.63C84.0835 14.456 83.8195 14.369 83.5015 14.369ZM89.1319 18.59C88.7719 18.59 88.4569 18.521 88.1869 18.383C87.9169 18.239 87.6919 18.05 87.5119 17.816C87.3319 17.576 87.1969 17.309 87.1069 17.015C87.0169 16.721 86.9719 16.421 86.9719 16.115C86.9719 15.809 87.0169 15.509 87.1069 15.215C87.1969 14.921 87.3319 14.657 87.5119 14.423C87.6919 14.183 87.9169 13.994 88.1869 13.856C88.4569 13.712 88.7719 13.64 89.1319 13.64C89.4319 13.64 89.6839 13.688 89.8879 13.784C90.0919 13.88 90.2569 13.994 90.3829 14.126C90.5089 14.252 90.6049 14.372 90.6709 14.486H90.7249V11.66H91.5799V18.5H90.7249V17.744H90.6709C90.6049 17.858 90.5089 17.981 90.3829 18.113C90.2569 18.245 90.0919 18.359 89.8879 18.455C89.6839 18.545 89.4319 18.59 89.1319 18.59ZM89.2759 17.861C89.5939 17.861 89.8579 17.777 90.0679 17.609C90.2839 17.435 90.4429 17.216 90.5449 16.952C90.6529 16.682 90.7069 16.403 90.7069 16.115C90.7069 15.821 90.6529 15.542 90.5449 15.278C90.4429 15.014 90.2839 14.798 90.0679 14.63C89.8579 14.456 89.5939 14.369 89.2759 14.369C88.9579 14.369 88.6909 14.456 88.4749 14.63C88.2589 14.798 88.0969 15.014 87.9889 15.278C87.8869 15.542 87.8359 15.821 87.8359 16.115C87.8359 16.403 87.8869 16.682 87.9889 16.952C88.0969 17.216 88.2589 17.435 88.4749 17.609C88.6909 17.777 88.9579 17.861 89.2759 17.861ZM97.2662 18.59C96.7562 18.59 96.3272 18.473 95.9792 18.239C95.6312 17.999 95.3672 17.69 95.1872 17.312C95.0072 16.934 94.9172 16.535 94.9172 16.115C94.9172 15.689 95.0072 15.29 95.1872 14.918C95.3672 14.54 95.6312 14.234 95.9792 14C96.3272 13.76 96.7562 13.64 97.2662 13.64C97.7762 13.64 98.2052 13.76 98.5532 14C98.9012 14.234 99.1652 14.54 99.3452 14.918C99.5252 15.29 99.6152 15.689 99.6152 16.115C99.6152 16.535 99.5252 16.934 99.3452 17.312C99.1652 17.69 98.9012 17.999 98.5532 18.239C98.2052 18.473 97.7762 18.59 97.2662 18.59ZM97.2662 17.843C97.5902 17.843 97.8602 17.762 98.0762 17.6C98.2982 17.432 98.4632 17.216 98.5712 16.952C98.6852 16.688 98.7422 16.409 98.7422 16.115C98.7422 15.815 98.6852 15.536 98.5712 15.278C98.4632 15.014 98.2982 14.801 98.0762 14.639C97.8602 14.471 97.5902 14.387 97.2662 14.387C96.9482 14.387 96.6782 14.471 96.4562 14.639C96.2342 14.801 96.0662 15.014 95.9522 15.278C95.8442 15.536 95.7902 15.815 95.7902 16.115C95.7902 16.409 95.8442 16.688 95.9522 16.952C96.0662 17.216 96.2342 17.432 96.4562 17.6C96.6782 17.762 96.9482 17.843 97.2662 17.843ZM100.782 18.5V13.73H101.637V14.423H101.691C101.733 14.351 101.802 14.252 101.898 14.126C102 14 102.144 13.889 102.33 13.793C102.516 13.691 102.75 13.64 103.032 13.64C103.38 13.64 103.677 13.721 103.923 13.883C104.169 14.039 104.355 14.252 104.481 14.522C104.613 14.792 104.679 15.095 104.679 15.431V18.5H103.824V15.485C103.824 15.167 103.734 14.903 103.554 14.693C103.38 14.483 103.125 14.378 102.789 14.378C102.519 14.378 102.3 14.447 102.132 14.585C101.964 14.717 101.838 14.894 101.754 15.116C101.676 15.332 101.637 15.563 101.637 15.809V18.5H100.782ZM110.04 18.59C109.548 18.59 109.176 18.464 108.924 18.212C108.678 17.96 108.555 17.606 108.555 17.15V14.432H107.7V13.73H108.555V12.533H109.41V13.73H110.571V14.432H109.41V17.15C109.41 17.39 109.476 17.567 109.608 17.681C109.74 17.789 109.932 17.843 110.184 17.843C110.316 17.843 110.442 17.834 110.562 17.816C110.682 17.798 110.742 17.789 110.742 17.789V18.518C110.742 18.518 110.673 18.53 110.535 18.554C110.397 18.578 110.232 18.59 110.04 18.59ZM111.955 18.5V11.66H112.81V14.423H112.864C112.906 14.351 112.975 14.252 113.071 14.126C113.173 14 113.317 13.889 113.503 13.793C113.689 13.691 113.923 13.64 114.205 13.64C114.553 13.64 114.85 13.721 115.096 13.883C115.342 14.039 115.528 14.252 115.654 14.522C115.786 14.792 115.852 15.095 115.852 15.431V18.5H114.997V15.485C114.997 15.167 114.907 14.903 114.727 14.693C114.553 14.483 114.298 14.378 113.962 14.378C113.692 14.378 113.473 14.447 113.305 14.585C113.137 14.717 113.011 14.894 112.927 15.116C112.849 15.332 112.81 15.563 112.81 15.809V18.5H111.955ZM119.281 18.59C118.891 18.59 118.552 18.521 118.264 18.383C117.982 18.239 117.748 18.047 117.562 17.807C117.382 17.567 117.247 17.303 117.157 17.015C117.067 16.721 117.022 16.421 117.022 16.115C117.022 15.815 117.064 15.518 117.148 15.224C117.238 14.93 117.373 14.663 117.553 14.423C117.739 14.183 117.97 13.994 118.246 13.856C118.528 13.712 118.861 13.64 119.245 13.64C119.653 13.64 120.013 13.733 120.325 13.919C120.637 14.105 120.883 14.381 121.063 14.747C121.243 15.113 121.333 15.572 121.333 16.124V16.376H117.886C117.904 16.646 117.967 16.895 118.075 17.123C118.189 17.345 118.348 17.525 118.552 17.663C118.756 17.795 118.999 17.861 119.281 17.861C119.527 17.861 119.725 17.822 119.875 17.744C120.031 17.66 120.154 17.564 120.244 17.456C120.334 17.348 120.394 17.255 120.424 17.177C120.46 17.093 120.478 17.051 120.478 17.051H121.279C121.279 17.051 121.264 17.105 121.234 17.213C121.204 17.315 121.15 17.441 121.072 17.591C120.994 17.741 120.88 17.894 120.73 18.05C120.58 18.2 120.388 18.329 120.154 18.437C119.92 18.539 119.629 18.59 119.281 18.59ZM117.895 15.71H120.496C120.484 15.398 120.418 15.146 120.298 14.954C120.178 14.756 120.025 14.609 119.839 14.513C119.653 14.417 119.455 14.369 119.245 14.369C118.867 14.369 118.558 14.492 118.318 14.738C118.078 14.978 117.937 15.302 117.895 15.71Z" fill="white"/>
<path d="M48.1363 34.5L52.2643 22.66H54.6643L58.8083 34.5H56.8403L55.9283 31.844H51.0163L50.1043 34.5H48.1363ZM51.5763 30.18H55.3683L53.4803 24.66L51.5763 30.18ZM60.5055 37.636V26.02H62.3295V27.284H62.4255C62.5321 27.124 62.6868 26.932 62.8895 26.708C63.1028 26.484 63.3855 26.2867 63.7375 26.116C64.1001 25.9453 64.5535 25.86 65.0975 25.86C65.7268 25.86 66.2815 25.988 66.7615 26.244C67.2415 26.4893 67.6361 26.8253 67.9455 27.252C68.2655 27.668 68.5001 28.1373 68.6495 28.66C68.8095 29.1827 68.8895 29.716 68.8895 30.26C68.8895 30.804 68.8095 31.3373 68.6495 31.86C68.5001 32.3827 68.2655 32.8573 67.9455 33.284C67.6361 33.7 67.2415 34.036 66.7615 34.292C66.2815 34.5373 65.7268 34.66 65.0975 34.66C64.5535 34.66 64.1001 34.5747 63.7375 34.404C63.3855 34.2333 63.1028 34.036 62.8895 33.812C62.6868 33.588 62.5321 33.396 62.4255 33.236H62.3295V37.636H60.5055ZM62.3295 30.26C62.3295 30.74 62.4148 31.1987 62.5855 31.636C62.7668 32.0733 63.0281 32.436 63.3695 32.724C63.7215 33.0013 64.1588 33.14 64.6815 33.14C65.2148 33.14 65.6521 33.0013 65.9935 32.724C66.3455 32.436 66.6068 32.0733 66.7775 31.636C66.9588 31.1987 67.0495 30.74 67.0495 30.26C67.0495 29.78 66.9588 29.3213 66.7775 28.884C66.6068 28.4467 66.3455 28.0893 65.9935 27.812C65.6521 27.524 65.2148 27.38 64.6815 27.38C64.1588 27.38 63.7215 27.524 63.3695 27.812C63.0281 28.0893 62.7668 28.4467 62.5855 28.884C62.4148 29.3213 62.3295 29.78 62.3295 30.26ZM70.8298 37.636V26.02H72.6538V27.284H72.7498C72.8565 27.124 73.0112 26.932 73.2138 26.708C73.4272 26.484 73.7098 26.2867 74.0618 26.116C74.4245 25.9453 74.8778 25.86 75.4218 25.86C76.0512 25.86 76.6058 25.988 77.0858 26.244C77.5658 26.4893 77.9605 26.8253 78.2698 27.252C78.5898 27.668 78.8245 28.1373 78.9738 28.66C79.1338 29.1827 79.2138 29.716 79.2138 30.26C79.2138 30.804 79.1338 31.3373 78.9738 31.86C78.8245 32.3827 78.5898 32.8573 78.2698 33.284C77.9605 33.7 77.5658 34.036 77.0858 34.292C76.6058 34.5373 76.0512 34.66 75.4218 34.66C74.8778 34.66 74.4245 34.5747 74.0618 34.404C73.7098 34.2333 73.4272 34.036 73.2138 33.812C73.0112 33.588 72.8565 33.396 72.7498 33.236H72.6538V37.636H70.8298ZM72.6538 30.26C72.6538 30.74 72.7392 31.1987 72.9098 31.636C73.0912 32.0733 73.3525 32.436 73.6938 32.724C74.0458 33.0013 74.4832 33.14 75.0058 33.14C75.5392 33.14 75.9765 33.0013 76.3178 32.724C76.6698 32.436 76.9312 32.0733 77.1018 31.636C77.2832 31.1987 77.3738 30.74 77.3738 30.26C77.3738 29.78 77.2832 29.3213 77.1018 28.884C76.9312 28.4467 76.6698 28.0893 76.3178 27.812C75.9765 27.524 75.5392 27.38 75.0058 27.38C74.4832 27.38 74.0458 27.524 73.6938 27.812C73.3525 28.0893 73.0912 28.4467 72.9098 28.884C72.7392 29.3213 72.6538 29.78 72.6538 30.26ZM88.825 34.66C88.121 34.66 87.513 34.5693 87.001 34.388C86.4996 34.2067 86.0836 33.9773 85.753 33.7C85.4223 33.412 85.1556 33.108 84.953 32.788C84.761 32.468 84.617 32.1693 84.521 31.892C84.425 31.604 84.361 31.3693 84.329 31.188C84.297 31.0067 84.281 30.916 84.281 30.916H86.185C86.185 30.916 86.201 30.9907 86.233 31.14C86.265 31.2787 86.329 31.4547 86.425 31.668C86.521 31.8707 86.665 32.0787 86.857 32.292C87.0596 32.4947 87.321 32.6707 87.641 32.82C87.9716 32.9587 88.3876 33.028 88.889 33.028C89.6356 33.028 90.217 32.852 90.633 32.5C91.0596 32.148 91.273 31.7 91.273 31.156C91.273 30.6867 91.113 30.324 90.793 30.068C90.4836 29.8013 90.025 29.5987 89.417 29.46L87.849 29.092C87.2623 28.964 86.7183 28.7773 86.217 28.532C85.7263 28.276 85.3263 27.9347 85.017 27.508C84.7183 27.0813 84.569 26.5427 84.569 25.892C84.569 25.188 84.7396 24.5853 85.081 24.084C85.433 23.572 85.913 23.1827 86.521 22.916C87.1396 22.6387 87.8436 22.5 88.633 22.5C89.401 22.5 90.0356 22.6173 90.537 22.852C91.0383 23.076 91.4383 23.3533 91.737 23.684C92.0356 24.0147 92.2543 24.3507 92.393 24.692C92.5423 25.0227 92.6383 25.3053 92.681 25.54C92.7236 25.764 92.745 25.876 92.745 25.876H90.921C90.921 25.876 90.8996 25.7907 90.857 25.62C90.8143 25.4387 90.713 25.2307 90.553 24.996C90.4036 24.7613 90.169 24.5587 89.849 24.388C89.5396 24.2067 89.1183 24.116 88.585 24.116C87.849 24.116 87.2996 24.2867 86.937 24.628C86.5743 24.9693 86.393 25.348 86.393 25.764C86.393 26.1693 86.5476 26.4947 86.857 26.74C87.1663 26.9747 87.5823 27.1507 88.105 27.268L89.785 27.668C90.4036 27.8067 90.9636 28.0147 91.465 28.292C91.977 28.5693 92.3823 28.9373 92.681 29.396C92.9796 29.844 93.129 30.3933 93.129 31.044C93.129 31.7053 92.9636 32.3133 92.633 32.868C92.313 33.412 91.833 33.8493 91.193 34.18C90.553 34.5 89.7636 34.66 88.825 34.66ZM98.4175 34.66C97.7455 34.66 97.2068 34.5373 96.8015 34.292C96.3961 34.0467 96.1028 33.7213 95.9215 33.316C95.7508 32.9 95.6655 32.452 95.6655 31.972V27.492H94.1775V26.02H95.6655V23.908H97.4895V26.02H99.4735V27.492H97.4895V31.94C97.4895 32.74 97.9321 33.14 98.8175 33.14C99.0415 33.14 99.2495 33.124 99.4415 33.092C99.6335 33.06 99.7295 33.044 99.7295 33.044V34.532C99.7295 34.532 99.5961 34.5533 99.3295 34.596C99.0735 34.6387 98.7695 34.66 98.4175 34.66ZM105.314 34.66C104.386 34.66 103.602 34.452 102.962 34.036C102.333 33.62 101.853 33.076 101.522 32.404C101.202 31.732 101.042 31.0173 101.042 30.26C101.042 29.5027 101.202 28.788 101.522 28.116C101.853 27.444 102.333 26.9 102.962 26.484C103.602 26.068 104.386 25.86 105.314 25.86C106.231 25.86 107.005 26.068 107.634 26.484C108.274 26.9 108.754 27.444 109.074 28.116C109.405 28.788 109.57 29.5027 109.57 30.26C109.57 31.0173 109.405 31.732 109.074 32.404C108.754 33.076 108.274 33.62 107.634 34.036C107.005 34.452 106.231 34.66 105.314 34.66ZM105.314 33.108C105.837 33.108 106.274 32.9747 106.626 32.708C106.989 32.4413 107.261 32.0893 107.442 31.652C107.634 31.2147 107.73 30.7507 107.73 30.26C107.73 29.7587 107.634 29.2947 107.442 28.868C107.261 28.4307 106.989 28.0787 106.626 27.812C106.274 27.5453 105.837 27.412 105.314 27.412C104.791 27.412 104.349 27.5453 103.986 27.812C103.623 28.0787 103.351 28.4307 103.17 28.868C102.989 29.2947 102.898 29.7587 102.898 30.26C102.898 30.7507 102.989 31.2147 103.17 31.652C103.351 32.0893 103.623 32.4413 103.986 32.708C104.349 32.9747 104.791 33.108 105.314 33.108ZM111.385 34.5V26.02H113.209V27.14H113.273C113.433 26.8093 113.684 26.516 114.025 26.26C114.377 25.9933 114.884 25.86 115.545 25.86C115.748 25.86 115.919 25.8707 116.057 25.892C116.207 25.9133 116.281 25.924 116.281 25.924V27.684C116.281 27.684 116.201 27.6733 116.041 27.652C115.881 27.6307 115.7 27.62 115.497 27.62C114.751 27.62 114.18 27.8333 113.785 28.26C113.401 28.676 113.209 29.3533 113.209 30.292V34.5H111.385ZM121.131 34.66C120.417 34.66 119.798 34.5373 119.275 34.292C118.763 34.036 118.337 33.7 117.995 33.284C117.665 32.8573 117.414 32.3827 117.243 31.86C117.083 31.3373 117.003 30.804 117.003 30.26C117.003 29.7267 117.083 29.1987 117.243 28.676C117.403 28.1533 117.649 27.6787 117.979 27.252C118.31 26.8253 118.731 26.4893 119.243 26.244C119.755 25.988 120.358 25.86 121.051 25.86C121.798 25.86 122.454 26.0307 123.019 26.372C123.595 26.7027 124.043 27.1987 124.363 27.86C124.694 28.5107 124.859 29.3213 124.859 30.292V30.788H118.843C118.886 31.4387 119.105 31.9987 119.499 32.468C119.894 32.9373 120.438 33.172 121.131 33.172C121.526 33.172 121.851 33.108 122.107 32.98C122.363 32.8413 122.561 32.6867 122.699 32.516C122.838 32.3453 122.934 32.196 122.987 32.068C123.051 31.94 123.083 31.876 123.083 31.876H124.779C124.779 31.876 124.753 31.972 124.699 32.164C124.646 32.3453 124.545 32.5747 124.395 32.852C124.257 33.1293 124.054 33.4067 123.787 33.684C123.521 33.9613 123.169 34.196 122.731 34.388C122.294 34.5693 121.761 34.66 121.131 34.66ZM118.859 29.508H123.099C123.057 28.7613 122.833 28.212 122.427 27.86C122.033 27.508 121.569 27.332 121.035 27.332C120.438 27.332 119.942 27.5293 119.547 27.924C119.153 28.308 118.923 28.836 118.859 29.508Z" fill="white"/>
<rect x="3.49854" y="0.5" width="140.999" height="47" rx="3.5" stroke="#003A5D" stroke-opacity="0.1" shape-rendering="crispEdges"/>
</g>
<defs>
<filter id="filter0_d_63_1669" x="0.998535" y="0" width="145.999" height="52" filterUnits="userSpaceOnUse" color-interpolation-filters="sRGB">
<feFlood flood-opacity="0" result="BackgroundImageFix"/>
<feColorMatrix in="SourceAlpha" type="matrix" values="0 0 0 0 0 0 0 0 0 0 0 0 0 0 0 0 0 0 127 0" result="hardAlpha"/>
<feOffset dy="2"/>
<feGaussianBlur stdDeviation="1"/>
<feComposite in2="hardAlpha" operator="out"/>
<feColorMatrix type="matrix" values="0 0 0 0 0.0275868 0 0 0 0 0.0285031 0 0 0 0 0.0291667 0 0 0 0.11 0"/>
<feBlend mode="normal" in2="BackgroundImageFix" result="effect1_dropShadow_63_1669"/>
<feBlend mode="normal" in="SourceGraphic" in2="effect1_dropShadow_63_1669" result="shape"/>
</filter>
</defs>
</svg>
